<svg xmlns="http://www.w3.org/2000/svg" aria-hidden="true" style="position:absolute;width:0;height:0;overflow:hidden"><defs><symbol id="icon-scroll-up-svgrepo-com" viewBox="0 0 32 32"><path d="M9.333 4.943V14a.667.667 0 1 1-1.334 0V4.943L6.47 6.472a.668.668 0 0 1-.943-.943l2.667-2.667c.26-.26.682-.26.943 0l2.667 2.667a.668.668 0 0 1-.943.943L9.332 4.943zm9.334 7.724v3.397a1.886 1.886 0 0 1-3.093 1.448l-1.232-1.026A2.095 2.095 0 0 0 13.001 16a.924.924 0 0 0-.833.523l-.048.099c-.18.374-.126.82.14 1.139l5.885 7.093a5.011 5.011 0 0 0 3.856 1.811 6 6 0 0 0 6-6v-5.333a.667.667 0 1 0-1.334 0v1.333a.667.667 0 1 1-1.334 0v-2.667a.667.667 0 1 0-1.334 0v2.667a.667.667 0 1 1-1.334 0v-4a.667.667 0 1 0-1.334 0v4a.667.667 0 1 1-1.334 0V7.332a.667.667 0 1 0-1.334 0v5.333zm-1.334 0V7.334a2 2 0 1 1 4 0v3.447a2 2 0 0 1 2.597 1.359 2.005 2.005 0 0 1 2.667 1.333 2 2 0 0 1 2.737 1.86v5.333a7.333 7.333 0 0 1-7.333 7.333 6.344 6.344 0 0 1-4.882-2.293l-5.885-7.093a2.397 2.397 0 0 1-.315-2.569l.048-.099a2.257 2.257 0 0 1 2.034-1.279c.802 0 1.579.281 2.195.795l1.232 1.026a.552.552 0 0 0 .906-.425v-3.397z"/></symbol></defs></svg>